<?xml version="1.0" standalone="no"?><!DOCTYPE svg PUBLIC "-//W3C//DTD SVG 1.1//EN" "http://www.w3.org/Graphics/SVG/1.1/DTD/svg11.dtd"><svg t="1601717680404" class="icon" viewBox="0 0 1024 1024" version="1.1" xmlns="http://www.w3.org/2000/svg" p-id="2166" xmlns:xlink="http://www.w3.org/1999/xlink" width="200" height="200"><defs><style type="text/css"></style></defs><path d="M512 531.2c-76.8 0-138.666667-61.866667-138.666667-138.666667s61.866667-138.666667 138.666667-138.666666 138.666667 61.866667 138.666667 138.666666-61.866667 138.666667-138.666667 138.666667z m0-224c-46.933333 0-85.333333 38.4-85.333333 85.333333s38.4 85.333333 85.333333 85.333334 85.333333-38.4 85.333333-85.333334-38.4-85.333333-85.333333-85.333333z" fill="#157658" p-id="2167"></path><path d="M512 864c-6.4 0-12.8-2.133333-19.2-8.533333-2.133333-2.133333-38.4-36.266667-83.2-85.333334-108.8-115.2-174.933333-202.666667-196.266667-256-14.933333-38.4-23.466667-78.933333-23.466666-121.6C189.866667 213.333333 334.933333 70.4 512 70.4s322.133333 145.066667 322.133333 322.133333c0 44.8-8.533333 85.333333-25.6 125.866667-23.466667 53.333333-87.466667 138.666667-194.133333 253.866667-46.933333 49.066667-83.2 85.333333-83.2 85.333333-6.4 4.266667-12.8 6.4-19.2 6.4z m0-740.266667c-149.333333 0-268.8 121.6-268.8 268.8 0 36.266667 6.4 70.4 19.2 102.4 19.2 46.933333 85.333333 132.266667 185.6 241.066667 25.6 27.733333 49.066667 51.2 64 66.133333 14.933333-14.933333 38.4-38.4 64-66.133333 100.266667-108.8 164.266667-189.866667 185.6-236.8 14.933333-34.133333 21.333333-68.266667 21.333333-104.533333C780.8 243.2 661.333333 123.733333 512 123.733333z" fill="#157658" p-id="2168"></path><path d="M512 953.6c-162.133333 0-337.066667-36.266667-337.066667-115.2 0-85.333333 192-108.8 251.733334-113.066667 8.533333 0 17.066667 2.133333 21.333333 8.533334 25.6 27.733333 49.066667 51.2 64 66.133333 14.933333-14.933333 38.4-38.4 64-66.133333 6.4-6.4 12.8-8.533333 21.333333-8.533334 59.733333 4.266667 251.733333 27.733333 251.733334 113.066667 0 78.933333-174.933333 115.2-337.066667 115.2z m-93.866667-172.8c-132.266667 12.8-187.733333 46.933333-189.866666 57.6 2.133333 19.2 100.266667 61.866667 283.733333 61.866667 181.333333 0 281.6-44.8 283.733333-61.866667-2.133333-12.8-57.6-46.933333-189.866666-57.6-42.666667 44.8-74.666667 76.8-74.666667 76.8-10.666667 10.666667-27.733333 10.666667-36.266667 0-2.133333-2.133333-34.133333-32-76.8-76.8z" fill="#157658" p-id="2169"></path></svg>